<svg width="375" height="69" viewBox="0 0 375 69" fill="none" xmlns="http://www.w3.org/2000/svg">
<path d="M63.7734 18.5859H73.0547C73.1719 18.5859 73.3125 18.7266 73.4766 19.0078V38.8008H83.4258C83.5664 38.8008 83.707 38.9414 83.8477 39.2227V48.2227C83.8477 48.3633 83.707 48.5039 83.4258 48.6445H73.4766V68.5781C73.4766 68.7188 73.3359 68.8594 73.0547 69H63.7734C63.6328 69 63.4922 68.8594 63.3516 68.5781V19.0078C63.3516 18.8672 63.4922 18.7266 63.7734 18.5859ZM95.5898 18.5859H104.59C104.73 18.5859 104.871 18.7266 105.012 19.0078V68.5781C105.012 68.7188 104.871 68.8594 104.59 69H95.5898C95.4492 69 95.3086 68.8594 95.168 68.5781V19.0078C95.168 18.8672 95.3086 18.7266 95.5898 18.5859ZM150.328 18.5508H159.434C160.137 18.5508 160.887 19.7695 161.684 22.207C161.965 22.6289 168.832 38.0391 182.285 68.4375C182.215 68.8125 181.84 69 181.16 69H172.336C171.562 69 170.719 67.5469 169.805 64.6406C168.117 60.9844 163.16 49.6406 154.934 30.6094H154.793C146.754 49.3359 141.152 62.0859 137.988 68.8594L137.285 69H128.602C128.086 69 127.711 68.8594 127.477 68.5781C139.43 41.4141 146.812 24.7852 149.625 18.6914L150.328 18.5508ZM228.797 18.6211H228.938C237.703 18.6211 244.523 22.4883 249.398 30.2227C250.195 31.9336 250.594 32.8711 250.594 33.0352V33.1758C245.297 35.7539 242.449 37.043 242.051 37.043C239.801 31.1602 235.699 28.2188 229.746 28.2188C221.238 28.2188 216.246 32.2734 214.77 40.3828C214.676 41.2266 214.629 42.0352 214.629 42.8086V45.1992C214.629 51.1992 217.395 55.5703 222.926 58.3125C224.191 58.7578 226.195 59.1562 228.938 59.5078L229.078 59.7891V68.6133C229.078 68.8711 228.902 69 228.551 69C218.285 69 210.926 63.9258 206.473 53.7773C205.324 50.0977 204.75 46.793 204.75 43.8633C204.75 33.3398 209.344 25.5937 218.531 20.625C221.859 19.2891 225.281 18.6211 228.797 18.6211ZM273.586 59.7539H315.527C316.301 59.7539 316.688 60.0586 316.688 60.668V68.0859C316.688 68.6953 316.301 69 315.527 69H273.586C273.422 69 273.234 68.8477 273.023 68.543V60.2109C273.023 60.0703 273.211 59.918 273.586 59.7539ZM367.945 18.5859C368.086 18.5859 368.168 18.6797 368.191 18.8672C355.723 33.1875 348.762 41.25 347.309 43.0547C348.152 44.1562 355.711 52.6641 369.984 68.5781V68.7188C369.984 68.9062 369.891 69 369.703 69H357.961C357.422 68.6484 352.781 63.457 344.039 53.4258C340.758 49.9805 339.117 47.9766 339.117 47.4141V39.082C339.117 38.6602 343.488 33.3867 352.23 23.2617C354.551 20.1445 356.004 18.5859 356.59 18.5859H367.945Z" fill="#258896"/>
<path d="M19.4792 36.9167C19.4792 35.651 20.5052 34.625 21.7708 34.625H24.0625C25.3282 34.625 26.3542 35.651 26.3542 36.9167C26.3542 38.1823 25.3282 39.2083 24.0625 39.2083H21.7708C20.5052 39.2083 19.4792 38.1823 19.4792 36.9167Z" fill="#1881FC"/>
<path d="M35.5208 34.625C34.2552 34.625 33.2292 35.651 33.2292 36.9167C33.2292 38.1823 34.2552 39.2083 35.5208 39.2083H37.8125C39.0782 39.2083 40.1042 38.1823 40.1042 36.9167C40.1042 35.651 39.0782 34.625 37.8125 34.625H35.5208Z" fill="#1881FC"/>
<path fill-rule="evenodd" clip-rule="evenodd" d="M6.875 36.9167C6.875 25.5258 16.1091 16.2917 27.5 16.2917C38.8909 16.2917 48.125 25.5258 48.125 36.9167V64.4167C48.125 65.3436 47.5667 66.1792 46.7103 66.5339C45.854 66.8886 44.8683 66.6925 44.2129 66.0371L41.25 63.0742L38.2871 66.0371C37.8016 66.5226 37.1241 66.7648 36.4409 66.6972C35.7576 66.6295 35.1407 66.2591 34.7599 65.6879L32.0833 61.673L29.4068 65.6879C28.9818 66.3254 28.2662 66.7083 27.5 66.7083C26.7338 66.7083 26.0182 66.3254 25.5932 65.6879L22.9167 61.673L20.2401 65.6879C19.8593 66.2591 19.2424 66.6295 18.5591 66.6972C17.8759 66.7648 17.1984 66.5226 16.7129 66.0371L13.75 63.0742L10.7871 66.0371C10.1317 66.6925 9.14602 66.8886 8.28968 66.5339C7.43335 66.1792 6.875 65.3436 6.875 64.4167V36.9167ZM27.5 20.875C18.6404 20.875 11.4583 28.0571 11.4583 36.9167V58.8841L12.1295 58.2129C13.0245 57.3179 14.4755 57.3179 15.3705 58.2129L17.9772 60.8196L21.0099 56.2705C21.4349 55.6329 22.1504 55.25 22.9167 55.25C23.6829 55.25 24.3984 55.6329 24.8234 56.2705L27.5 60.2853L30.1766 56.2705C30.6016 55.6329 31.3171 55.25 32.0833 55.25C32.8496 55.25 33.5651 55.6329 33.9901 56.2705L37.0229 60.8196L39.6295 58.2129C40.5245 57.3179 41.9755 57.3179 42.8705 58.2129L43.5417 58.8841V36.9167C43.5417 28.0571 36.3596 20.875 27.5 20.875Z" fill="#1881FC"/>
</svg>
